<svg xmlns="http://www.w3.org/2000/svg" xmlns:xlink="http://www.w3.org/1999/xlink" version="1.1" width="256" height="256" viewBox="0 0 256 256" xml:space="preserve">
<desc>Created with Fabric.js 1.7.22</desc>
<defs>
</defs>
<g transform="translate(128 128) scale(0.72 0.72)" style="">
	<g style="stroke: none; stroke-width: 0; stroke-dasharray: none; stroke-linecap: butt; stroke-linejoin: miter; stroke-miterlimit: 10; fill: none; fill-rule: nonzero; opacity: 1;" transform="translate(-175.05 -175.05000000000004) scale(3.89 3.89)" >
	<path d="M 51.048 9.612 c -0.797 0.766 -1.641 1.479 -2.459 2.222 l -1.549 1.382 V 7.438 V 3.719 C 46.419 2.479 45.818 1.24 45 0 c -0.818 1.24 -1.419 2.479 -2.039 3.719 v 3.719 v 5.777 l -1.549 -1.382 l -2.473 -2.206 c -1.237 -0.273 -2.461 -0.56 -3.83 -0.685 c 0.28 1.346 0.704 2.53 1.115 3.728 l 2.473 2.206 l 4.264 3.805 v 3.634 c -0.009 1.24 0.02 2.479 -0.02 3.719 c 0.608 1.24 1.209 2.479 2.059 3.719 c 0.85 -1.24 1.451 -2.479 2.059 -3.719 c -0.041 -1.24 -0.011 -2.48 -0.02 -3.719 v -3.634 l 4.264 -3.805 c 0.83 -0.729 1.635 -1.486 2.486 -2.191 c 0.419 -1.189 0.843 -2.373 1.102 -3.743 C 53.501 9.043 52.277 9.33 51.048 9.612 z" style="stroke: none; stroke-width: 1; stroke-dasharray: none; stroke-linecap: butt; stroke-linejoin: miter; stroke-miterlimit: 10; fill: rgb(144,206,245); fill-rule: nonzero; opacity: 1;" transform=" matrix(1 0 0 1 0 0) " stroke-linecap="round" />
	<path d="M 53.79 77.315 c -0.851 -0.705 -1.656 -1.463 -2.486 -2.191 l -4.264 -3.805 v -3.634 c 0.009 -1.24 -0.02 -2.479 0.02 -3.719 c -0.608 -1.24 -1.209 -2.479 -2.059 -3.719 c -0.85 1.24 -1.451 2.48 -2.059 3.719 c 0.041 1.24 0.011 2.479 0.02 3.719 v 3.634 l -4.264 3.805 l -2.473 2.206 c -0.411 1.198 -0.836 2.382 -1.115 3.728 c 1.369 -0.125 2.593 -0.412 3.83 -0.685 l 2.473 -2.206 l 1.549 -1.382 v 5.777 v 3.719 C 43.581 87.52 44.182 88.76 45 90 c 0.818 -1.24 1.419 -2.48 2.039 -3.719 v -3.719 v -5.777 l 1.549 1.382 c 0.818 0.742 1.662 1.456 2.459 2.222 c 1.229 0.282 2.454 0.568 3.844 0.67 C 54.633 79.689 54.209 78.504 53.79 77.315 z" style="stroke: none; stroke-width: 1; stroke-dasharray: none; stroke-linecap: butt; stroke-linejoin: miter; stroke-miterlimit: 10; fill: rgb(144,206,245); fill-rule: nonzero; opacity: 1;" transform=" matrix(1 0 0 1 0 0) " stroke-linecap="round" />
	<path d="M 86.281 42.961 h -3.719 h -5.777 l 1.382 -1.549 l 2.206 -2.473 c 0.273 -1.237 0.56 -2.461 0.685 -3.83 c -1.346 0.28 -2.53 0.704 -3.728 1.115 l -2.206 2.473 l -3.805 4.264 h -3.634 c -1.24 -0.009 -2.479 0.02 -3.719 -0.02 c -1.24 0.608 -2.479 1.209 -3.719 2.059 c 1.24 0.85 2.479 1.451 3.719 2.059 c 1.24 -0.041 2.48 -0.011 3.719 -0.02 h 3.634 l 3.805 4.264 c 0.729 0.83 1.486 1.635 2.191 2.486 c 1.189 0.419 2.373 0.843 3.743 1.102 c -0.101 -1.39 -0.388 -2.615 -0.67 -3.844 c -0.766 -0.797 -1.479 -1.641 -2.222 -2.459 l -1.382 -1.549 h 5.777 h 3.719 C 87.52 46.419 88.76 45.818 90 45 C 88.76 44.182 87.52 43.581 86.281 42.961 z" style="stroke: none; stroke-width: 1; stroke-dasharray: none; stroke-linecap: butt; stroke-linejoin: miter; stroke-miterlimit: 10; fill: rgb(144,206,245); fill-rule: nonzero; opacity: 1;" transform=" matrix(1 0 0 1 0 0) " stroke-linecap="round" />
	<path d="M 26.034 42.941 c -1.24 0.041 -2.479 0.011 -3.719 0.02 h -3.634 l -3.805 -4.264 l -2.206 -2.473 c -1.198 -0.411 -2.382 -0.836 -3.728 -1.115 c 0.125 1.369 0.412 2.593 0.685 3.83 l 2.206 2.473 l 1.382 1.549 H 7.438 H 3.719 C 2.48 43.581 1.24 44.182 0 45 c 1.24 0.818 2.48 1.419 3.719 2.039 h 3.719 h 5.777 l -1.382 1.549 c -0.742 0.818 -1.456 1.662 -2.222 2.459 c -0.282 1.229 -0.568 2.454 -0.67 3.844 c 1.37 -0.258 2.554 -0.682 3.743 -1.102 c 0.705 -0.851 1.463 -1.656 2.191 -2.486 l 3.805 -4.264 h 3.634 c 1.24 0.009 2.479 -0.02 3.719 0.02 c 1.24 -0.608 2.479 -1.209 3.719 -2.059 C 28.514 44.15 27.274 43.549 26.034 42.941 z" style="stroke: none; stroke-width: 1; stroke-dasharray: none; stroke-linecap: butt; stroke-linejoin: miter; stroke-miterlimit: 10; fill: rgb(144,206,245); fill-rule: nonzero; opacity: 1;" transform=" matrix(1 0 0 1 0 0) " stroke-linecap="round" />
	<path d="M 33.045 30.133 c -0.905 -0.848 -1.761 -1.745 -2.644 -2.615 l -2.57 -2.57 l 0.325 -5.706 c 0.072 -1.102 0.105 -2.207 0.209 -3.308 c -0.545 -1.138 -1.082 -2.275 -1.868 -3.426 c -0.911 1.055 -1.574 2.123 -2.244 3.192 c -0.022 1.105 -0.114 2.206 -0.168 3.31 l -0.118 2.073 l -4.085 -4.085 l -2.63 -2.63 c -1.315 -0.438 -2.617 -0.89 -4.072 -1.188 c 0.298 1.455 0.75 2.757 1.188 4.072 l 2.63 2.63 l 4.085 4.085 l -2.073 0.118 l -3.309 0.188 c -1.068 0.682 -2.136 1.344 -3.193 2.224 c 1.149 0.754 2.286 1.291 3.425 1.847 l 3.309 -0.188 l 5.706 -0.325 l 2.57 2.57 c 0.87 0.883 1.768 1.739 2.615 2.644 c 1.307 0.447 2.608 0.898 4.086 1.174 C 33.943 32.741 33.492 31.44 33.045 30.133 z" style="stroke: none; stroke-width: 1; stroke-dasharray: none; stroke-linecap: butt; stroke-linejoin: miter; stroke-miterlimit: 10; fill: rgb(144,206,245); fill-rule: nonzero; opacity: 1;" transform=" matrix(1 0 0 1 0 0) " stroke-linecap="round" />
	<path d="M 73.002 70.118 l -4.085 -4.085 l 2.073 -0.118 c 1.103 -0.054 2.205 -0.146 3.31 -0.168 c 1.068 -0.67 2.137 -1.333 3.192 -2.244 c -1.151 -0.786 -2.288 -1.323 -3.426 -1.868 c -1.101 0.103 -2.205 0.137 -3.308 0.209 l -5.706 0.325 l -2.57 -2.57 c -0.87 -0.883 -1.768 -1.739 -2.615 -2.644 c -1.307 -0.447 -2.608 -0.898 -4.086 -1.174 c 0.276 1.478 0.727 2.779 1.174 4.086 c 0.905 0.848 1.761 1.745 2.644 2.615 l 2.57 2.57 l -0.325 5.706 l -0.188 3.309 c 0.556 1.138 1.093 2.275 1.847 3.425 c 0.88 -1.056 1.542 -2.125 2.224 -3.193 l 0.188 -3.309 l 0.118 -2.073 l 4.085 4.085 l 2.63 2.63 c 1.315 0.438 2.617 0.89 4.072 1.188 c -0.298 -1.455 -0.75 -2.757 -1.188 -4.072 L 73.002 70.118 z" style="stroke: none; stroke-width: 1; stroke-dasharray: none; stroke-linecap: butt; stroke-linejoin: miter; stroke-miterlimit: 10; fill: rgb(144,206,245); fill-rule: nonzero; opacity: 1;" transform=" matrix(1 0 0 1 0 0) " stroke-linecap="round" />
	<path d="M 74.3 24.253 c -1.105 -0.022 -2.206 -0.114 -3.31 -0.168 l -2.073 -0.118 l 4.085 -4.085 l 2.63 -2.63 c 0.438 -1.315 0.89 -2.617 1.188 -4.072 c -1.455 0.298 -2.757 0.75 -4.072 1.188 l -2.63 2.63 l -4.085 4.085 l -0.118 -2.073 l -0.188 -3.309 c -0.682 -1.068 -1.344 -2.136 -2.224 -3.193 c -0.754 1.149 -1.291 2.286 -1.847 3.425 l 0.188 3.309 l 0.325 5.706 l -2.57 2.57 c -0.883 0.87 -1.739 1.768 -2.644 2.615 c -0.447 1.307 -0.898 2.608 -1.174 4.086 c 1.478 -0.276 2.779 -0.727 4.086 -1.174 c 0.848 -0.905 1.745 -1.761 2.615 -2.644 l 2.57 -2.57 l 5.706 0.325 c 1.102 0.072 2.207 0.105 3.308 0.209 c 1.137 -0.544 2.275 -1.082 3.426 -1.868 C 76.437 25.586 75.368 24.923 74.3 24.253 z" style="stroke: none; stroke-width: 1; stroke-dasharray: none; stroke-linecap: butt; stroke-linejoin: miter; stroke-miterlimit: 10; fill: rgb(144,206,245); fill-rule: nonzero; opacity: 1;" transform=" matrix(1 0 0 1 0 0) " stroke-linecap="round" />
	<path d="M 30.133 56.955 c -0.848 0.905 -1.745 1.761 -2.615 2.644 l -2.57 2.57 l -5.706 -0.325 l -3.309 -0.188 c -1.138 0.556 -2.275 1.093 -3.425 1.847 c 1.056 0.88 2.125 1.542 3.193 2.224 l 3.309 0.188 l 2.073 0.118 l -4.085 4.085 l -2.63 2.63 c -0.438 1.315 -0.89 2.617 -1.188 4.072 c 1.455 -0.298 2.757 -0.75 4.072 -1.188 l 2.63 -2.63 l 4.085 -4.085 l 0.118 2.073 c 0.054 1.103 0.146 2.205 0.168 3.31 c 0.67 1.068 1.333 2.137 2.244 3.192 c 0.786 -1.151 1.323 -2.288 1.868 -3.426 c -0.103 -1.101 -0.137 -2.205 -0.209 -3.308 l -0.325 -5.706 l 2.57 -2.57 c 0.883 -0.87 1.739 -1.768 2.644 -2.615 c 0.447 -1.307 0.898 -2.609 1.174 -4.086 C 32.742 56.057 31.44 56.508 30.133 56.955 z" style="stroke: none; stroke-width: 1; stroke-dasharray: none; stroke-linecap: butt; stroke-linejoin: miter; stroke-miterlimit: 10; fill: rgb(144,206,245); fill-rule: nonzero; opacity: 1;" transform=" matrix(1 0 0 1 0 0) " stroke-linecap="round" />
	<polygon points="35.56,22.27 45.03,32.81 54.55,22.32 53.79,36.46 67.94,35.77 57.4,45.24 67.89,54.76 53.75,54 54.44,68.15 44.97,57.61 35.45,68.11 36.21,53.96 22.06,54.65 32.6,45.18 22.11,35.67 36.25,36.42 " style="stroke: none; stroke-width: 1; stroke-dasharray: none; stroke-linecap: butt; stroke-linejoin: miter; stroke-miterlimit: 10; fill: rgb(82,156,202); fill-rule: nonzero; opacity: 1;" transform="  matrix(1 0 0 1 0 0) "/>
</g>
</g>
</svg>