<?xml version="1.0" encoding="iso-8859-1"?>
<!-- Generator: Adobe Illustrator 21.0.2, SVG Export Plug-In . SVG Version: 6.00 Build 0)  -->
<svg xmlns="http://www.w3.org/2000/svg" xmlns:xlink="http://www.w3.org/1999/xlink" version="1.1" id="Layer_1" x="0px" y="0px" viewBox="0 0 40 40" style="enable-background:new 0 0 40 40;" xml:space="preserve">
<g>
	<polygon style="fill:#B6DCFE;" points="10.747,39.5 17.747,22.5 8.732,22.5 17.341,0.5 31.167,0.5 23.167,15.5 31.894,15.5    10.774,39.5  "/>
	<path style="fill:#4788C7;" d="M30.333,1l-7.216,13.529L22.333,16H24h6.788L12.325,36.981l5.6-13.6L18.493,22H17H9.465l8.217-21   H30.333 M32,0H17L8,23h9l-7,17h1l22-25h-9L32,0L32,0z"/>
</g>
<polygon style="fill:#FFFFFF;" points="19.167,1.37 19.178,1.343 19.187,1.315 19.292,1 17.678,1 9.475,22 11.112,22 "/>
<polygon style="fill:#FFFFFF;" points="19.431,23.761 19.999,22.381 20.156,22 18.493,22 17.925,23.381 12.325,36.981 15.45,33.43   "/>
</svg>
